<svg width="92" height="92" viewBox="0 0 92 92" fill="none" xmlns="http://www.w3.org/2000/svg">
<circle cx="46.0508" cy="46.3249" r="45.4264" fill="#66B933"/>
<path d="M67.0001 62H27.0001C24.7909 62 23.0001 60.2092 23.0001 58V34C23.0001 31.7909 24.7909 30 27.0001 30H67.0001C69.2092 30 71.0001 31.7909 71.0001 34V58C71.0001 60.2092 69.2092 62 67.0001 62ZM33.6667 39.6667V36.3334C33.6667 35.7811 33.219 35.3334 32.6667 35.3334H29.3334C28.7811 35.3334 28.3334 35.7811 28.3334 36.3334V39.6667C28.3334 40.2189 28.7811 40.6667 29.3334 40.6667H32.6667C33.219 40.6667 33.6667 40.2189 33.6667 39.6667ZM41.6667 39.6667V36.3334C41.6667 35.7811 41.219 35.3334 40.6667 35.3334H37.3334C36.7811 35.3334 36.3334 35.7811 36.3334 36.3334V39.6667C36.3334 40.2189 36.7811 40.6667 37.3334 40.6667H40.6667C41.219 40.6667 41.6667 40.2189 41.6667 39.6667ZM49.6667 39.6667V36.3334C49.6667 35.7811 49.219 35.3334 48.6667 35.3334H45.3334C44.7811 35.3334 44.3334 35.7811 44.3334 36.3334V39.6667C44.3334 40.2189 44.7811 40.6667 45.3334 40.6667H48.6667C49.219 40.6667 49.6667 40.2189 49.6667 39.6667ZM57.6667 39.6667V36.3334C57.6667 35.7811 57.219 35.3334 56.6667 35.3334H53.3334C52.7811 35.3334 52.3334 35.7811 52.3334 36.3334V39.6667C52.3334 40.2189 52.7811 40.6667 53.3334 40.6667H56.6667C57.219 40.6667 57.6667 40.2189 57.6667 39.6667ZM65.6667 39.6667V36.3334C65.6667 35.7811 65.219 35.3334 64.6667 35.3334H61.3334C60.7811 35.3334 60.3334 35.7811 60.3334 36.3334V39.6667C60.3334 40.2189 60.7811 40.6667 61.3334 40.6667H64.6667C65.219 40.6667 65.6667 40.2189 65.6667 39.6667ZM37.6667 47.6667V44.3334C37.6667 43.7811 37.219 43.3334 36.6667 43.3334H33.3334C32.7811 43.3334 32.3334 43.7811 32.3334 44.3334V47.6667C32.3334 48.2189 32.7811 48.6667 33.3334 48.6667H36.6667C37.219 48.6667 37.6667 48.2189 37.6667 47.6667ZM45.6667 47.6667V44.3334C45.6667 43.7811 45.219 43.3334 44.6667 43.3334H41.3334C40.7811 43.3334 40.3334 43.7811 40.3334 44.3334V47.6667C40.3334 48.2189 40.7811 48.6667 41.3334 48.6667H44.6667C45.219 48.6667 45.6667 48.2189 45.6667 47.6667ZM53.6667 47.6667V44.3334C53.6667 43.7811 53.219 43.3334 52.6667 43.3334H49.3334C48.7811 43.3334 48.3334 43.7811 48.3334 44.3334V47.6667C48.3334 48.2189 48.7811 48.6667 49.3334 48.6667H52.6667C53.219 48.6667 53.6667 48.2189 53.6667 47.6667ZM61.6667 47.6667V44.3334C61.6667 43.7811 61.219 43.3334 60.6667 43.3334H57.3334C56.7811 43.3334 56.3334 43.7811 56.3334 44.3334V47.6667C56.3334 48.2189 56.7811 48.6667 57.3334 48.6667H60.6667C61.219 48.6667 61.6667 48.2189 61.6667 47.6667ZM33.6667 55.6667V52.3334C33.6667 51.7811 33.219 51.3334 32.6667 51.3334H29.3334C28.7811 51.3334 28.3334 51.7811 28.3334 52.3334V55.6667C28.3334 56.2189 28.7811 56.6667 29.3334 56.6667H32.6667C33.219 56.6667 33.6667 56.2189 33.6667 55.6667ZM57.6667 55.6667V52.3334C57.6667 51.7811 57.219 51.3334 56.6667 51.3334H37.3334C36.7811 51.3334 36.3334 51.7811 36.3334 52.3334V55.6667C36.3334 56.2189 36.7811 56.6667 37.3334 56.6667H56.6667C57.219 56.6667 57.6667 56.2189 57.6667 55.6667ZM65.6667 55.6667V52.3334C65.6667 51.7811 65.219 51.3334 64.6667 51.3334H61.3334C60.7811 51.3334 60.3334 51.7811 60.3334 52.3334V55.6667C60.3334 56.2189 60.7811 56.6667 61.3334 56.6667H64.6667C65.219 56.6667 65.6667 56.2189 65.6667 55.6667Z" fill="black"/>
</svg>
