<svg width="92" height="92" viewBox="0 0 92 92" fill="none" xmlns="http://www.w3.org/2000/svg">
<circle cx="45.906" cy="46.3249" r="45.4264" fill="#66B933"/>
<path d="M47.0001 25C34.289 25 24.0001 35.4784 24.0001 48.4286V52.8214C24.0001 53.3653 24.1487 53.8984 24.4294 54.3611C24.7101 54.8237 25.1118 55.1976 25.5893 55.4409L26.8815 56.099C27.0622 61.5983 31.4949 66 36.9376 66H39.0938C40.2847 66 41.2501 65.0166 41.2501 63.8036V47.6964C41.2501 46.4834 40.2847 45.5 39.0938 45.5H36.9376C34.1217 45.5 31.5765 46.6787 29.7501 48.5775V48.4286C29.7501 38.7397 37.4884 30.8571 47.0001 30.8571C56.5117 30.8571 64.2501 38.7397 64.2501 48.4286V48.5775C62.4236 46.6787 59.8784 45.5 57.0626 45.5H54.9063C53.7154 45.5 52.7501 46.4834 52.7501 47.6964V63.8036C52.7501 65.0166 53.7154 66 54.9063 66H57.0626C62.5052 66 66.9379 61.5982 67.1186 56.099L68.4107 55.4409C68.8883 55.1976 69.2899 54.8238 69.5707 54.3611C69.8514 53.8985 70.0001 53.3653 70.0001 52.8214V48.4286C70.0001 35.4807 59.7133 25 47.0001 25Z" fill="black"/>
</svg>
