<svg width="92" height="92" viewBox="0 0 92 92" fill="none" xmlns="http://www.w3.org/2000/svg">
<circle cx="46.1446" cy="46.3249" r="45.4264" fill="#66B933"/>
<path d="M66.1665 25H27.8332C25.7168 25 23.9998 26.7217 23.9998 28.8438V54.4688C23.9998 56.5909 25.7168 58.3125 27.8332 58.3125H43.1665L41.8887 62.1563H36.1387C35.0766 62.1563 34.2221 63.0131 34.2221 64.0782C34.2221 65.1432 35.0766 66 36.1387 66H57.8609C58.9231 66 59.7776 65.1432 59.7776 64.0782C59.7776 63.0131 58.9231 62.1563 57.8609 62.1563H52.1109L50.8332 58.3125H66.1665C68.2828 58.3125 69.9998 56.5909 69.9998 54.4688V28.8438C69.9998 26.7217 68.2828 25 66.1665 25ZM64.8887 53.1875H29.1109V30.125H64.8887V53.1875Z" fill="black"/>
</svg>
