<svg width="92" height="92" viewBox="0 0 92 92" fill="none" xmlns="http://www.w3.org/2000/svg">
<circle cx="45.9998" cy="46.3249" r="45.4264" fill="#66B933"/>
<path d="M30 55.25C30 58.8967 31.4047 62.3941 33.9052 64.9727C36.4057 67.5514 39.7971 69 43.3333 69H48.6666C50.4176 69 52.1514 68.6444 53.7691 67.9534C55.3868 67.2624 56.8566 66.2495 58.0947 64.9727C59.3328 63.6959 60.315 62.1801 60.985 60.5119C61.6551 58.8437 62 57.0557 62 55.25V44.25H30V55.25ZM44.6666 25H43.3333C39.7971 25 36.4057 26.4487 33.9052 29.0273C31.4047 31.6059 30 35.1033 30 38.75L30 41.5H44.6666V25ZM48.6666 25H47.3333V41.5H62V38.75C62 36.9443 61.6551 35.1563 60.985 33.4881C60.315 31.8199 59.3328 30.3041 58.0947 29.0273C56.8566 27.7505 55.3868 26.7377 53.7691 26.0467C52.1514 25.3557 50.4176 25 48.6666 25V25Z" fill="black"/>
</svg>
