<svg width="55" height="55" viewBox="0 0 55 55" fill="none" xmlns="http://www.w3.org/2000/svg">
<g clip-path="url(#clip0_39118_15)">
<path d="M54.3546 1.05723C54.4164 0.725584 54.2868 0.376257 53.9996 0.168898C53.6314 -0.096911 53.1223 -0.0436785 52.8159 0.291633L52.3382 0.816044L51.5842 1.13968C51.3163 1.05683 51.0174 1.04971 50.7061 1.12664C50.5277 1.17085 50.4749 1.16046 50.3162 1.12916C49.969 1.06107 49.6059 1.01982 49.0267 1.20494C48.8224 1.193 48.5831 1.22223 48.2068 1.34554C47.7343 1.50135 47.4402 1.87274 47.2255 2.14513L47.1541 2.23652C45.8032 2.58452 45.2696 3.34388 45.0623 3.93492C45.0214 4.04979 44.9943 4.16421 44.9724 4.27868C43.5486 3.19948 41.5916 3.10159 39.9306 4.0726C38.0241 5.18854 37.1714 7.30121 37.7592 9.4558C38.7071 12.9363 42.0094 16.2143 43.9815 18.174L44.6205 18.8127C45.6481 19.8609 46.9775 21.9738 46.7122 23.386C46.6476 23.7382 46.4611 24.2492 45.6002 24.639C45.1615 24.8374 44.7419 24.9605 44.3359 25.0085C45.0642 22.9669 44.712 20.7715 43.3296 19.3333C41.3562 17.2845 39.4923 17.7957 38.7802 18.3519C38.4804 18.5876 38.3619 18.9877 38.4856 19.3478C38.6104 19.7081 38.9508 19.9504 39.3336 19.9501C40.2806 19.9493 41.3461 20.6545 41.809 21.5901C42.1991 22.3786 42.1238 23.2332 41.595 24.0825C41.1941 23.7556 40.8487 23.3951 40.5528 23.0842C40.4309 22.9568 40.3163 22.8364 40.215 22.7378L40.1414 22.6562C38.7251 21.0602 37.2824 20.129 35.8373 19.8745C35.6562 17.3203 33.8517 14.7365 31.1164 13.2343C30.8949 13.1119 30.6648 13.0034 30.4262 12.905C29.916 10.2364 28.2836 8.44691 25.6794 7.71421C21.8791 6.64332 18.8618 8.34163 17.4005 12.3713C16.9018 13.7462 15.8422 18.4333 14.9724 22.363L14.8086 23.0994C14.6923 23.619 14.0867 24.5529 13.4415 24.7752C13.2634 24.8378 13.039 24.8668 12.7285 24.6133C12.0948 24.0977 12.469 22.6098 12.6702 21.8103C12.7097 21.6552 12.7426 21.5214 12.7699 21.3997C12.9344 20.6381 12.6844 19.7888 12.1164 19.1841C11.5612 18.5923 10.7929 18.3206 10.0085 18.4392C8.34726 18.6893 7.82042 20.033 7.61341 20.6385C7.45239 20.3311 7.23057 19.9274 6.81183 19.6883C6.47174 19.4941 6.24378 19.4168 6.0404 19.3871C5.50569 19.0862 5.14248 19.0567 4.78563 19.0545C4.62523 19.0537 4.57063 19.0537 4.40514 18.9737C4.07451 18.8162 3.73363 18.7678 3.41472 18.8286L2.79875 18.4379L2.40887 17.8439C2.15704 17.4601 1.65597 17.3301 1.24784 17.5419C0.938261 17.7029 0.760745 18.0239 0.768262 18.357C0.460274 18.4932 0.245177 18.797 0.236379 19.1507C0.224795 19.6046 0.55573 19.995 1.0056 20.0582L1.70788 20.1575L2.31519 20.5424C2.39154 20.8471 2.57273 21.1337 2.8499 21.3697C2.98992 21.4892 3.01229 21.5384 3.07919 21.6857C3.22655 22.0093 3.40221 22.3292 3.89465 22.6945C4.00351 22.8657 4.1659 23.0429 4.48423 23.2753C4.88604 23.569 5.35925 23.5904 5.705 23.6055C5.739 23.608 5.78118 23.6092 5.82115 23.6119C6.88964 24.5085 7.81878 24.5002 8.42083 24.3236C8.53667 24.2902 8.64618 24.2457 8.75154 24.1976C8.70384 25.9831 9.76353 27.632 11.5196 28.4152C13.5363 29.3169 15.7506 28.7791 17.1607 27.0473C19.4371 24.2492 20.1808 19.6566 20.6242 16.9127L20.7727 16.0202C21.0264 14.5744 21.969 12.2638 23.2715 11.6562C23.5951 11.5047 24.1206 11.3593 24.9385 11.8326C25.3561 12.0723 25.6991 12.3417 25.9744 12.6433C23.8913 13.2408 22.3116 14.8062 21.9481 16.7679C21.4295 19.5629 22.931 20.7823 23.7981 21.0364C24.1652 21.1443 24.5574 21.0072 24.7788 20.695C25.0002 20.3851 24.9981 19.9674 24.7763 19.6579C24.2225 18.8871 24.1761 17.6108 24.6674 16.689C25.081 15.9135 25.8202 15.4762 26.8173 15.412C26.7868 15.9291 26.6938 16.4201 26.6153 16.8414C26.5823 17.0141 26.551 17.1774 26.5295 17.3177C26.5266 17.3325 26.5143 17.3837 26.5047 17.4239C26.0748 19.3165 26.1061 20.9114 26.5947 22.1835C24.4966 23.4789 23.0091 26.127 22.7937 29.0865C22.7742 29.3389 22.7713 29.5955 22.7816 29.851C20.5683 31.4271 19.6222 33.6567 20.0403 36.3299C20.6502 40.2308 23.4499 42.2656 27.7235 41.9155C29.1811 41.7962 33.8838 40.8086 37.8193 39.9613L38.5555 39.8023C39.0775 39.6926 40.1783 39.8529 40.6491 40.3467C40.7797 40.4842 40.9001 40.6752 40.7992 41.0633C40.5949 41.8538 39.0854 42.1333 38.2747 42.2844C38.1182 42.3128 37.9822 42.3377 37.861 42.3648C37.0997 42.5327 36.4311 43.1139 36.1183 43.882C35.8117 44.6327 35.8834 45.4455 36.3182 46.1085C37.2382 47.5149 38.6788 47.4339 39.3156 47.3697C39.1037 47.6445 38.8293 48.0135 38.7859 48.4955C38.7515 48.8847 38.7761 49.1249 38.8334 49.3205C38.7816 49.9316 38.907 50.2757 39.0532 50.5996C39.1195 50.746 39.1407 50.7959 39.139 50.9791C39.1326 51.3572 39.2393 51.6963 39.439 51.9661L39.3066 52.8846L38.9257 53.4831C38.6771 53.8712 38.7635 54.3818 39.1244 54.666C39.2555 54.7697 39.413 54.8345 39.5792 54.8529C39.7453 54.8714 39.9132 54.8427 40.0638 54.7703C40.3154 54.9955 40.6806 55.0675 41.0069 54.9305C41.4256 54.7552 41.6463 54.2939 41.5197 53.8573L41.3226 53.1752L41.4626 52.1988C41.6952 52.0025 41.8701 51.7273 41.9666 51.3923C42.0153 51.2167 42.0507 51.1756 42.1573 51.0528C42.3894 50.7846 42.6074 50.4908 42.734 49.8923C42.8455 49.7221 42.9382 49.4995 43.0174 49.114C43.1178 48.6266 42.9389 48.1874 42.8099 47.8667L42.7667 47.7583C43.1367 46.4138 42.7422 45.5726 42.3322 45.0985C42.2516 45.0078 42.1659 44.9268 42.0793 44.8505C43.7215 44.1512 44.7791 42.5 44.7611 40.5767C44.7387 38.3674 43.3278 36.5798 41.1671 36.0185C37.674 35.1152 33.1895 36.3519 30.5109 37.0916L29.6384 37.3291C28.2173 37.701 25.724 37.8059 24.6295 36.875C24.3573 36.6434 24.0058 36.2284 24.0951 35.2856C24.1402 34.8066 24.2418 34.3824 24.401 34.0069C25.8123 35.6523 27.8934 36.4358 29.8279 35.9489C32.585 35.2552 33.0678 33.3825 32.937 32.4887C32.8826 32.1113 32.594 31.8094 32.2198 31.7388C31.8447 31.6683 31.4658 31.843 31.2776 32.174C30.8066 32.9972 29.6659 33.5718 28.6234 33.5096C27.7452 33.4572 27.0404 32.9673 26.5659 32.0861C27.0495 31.9 27.5329 31.7788 27.9497 31.6757C28.1214 31.6334 28.2824 31.5942 28.4186 31.5554C28.4544 31.5483 28.4902 31.5407 28.5259 31.5327C30.6852 31.0804 32.2405 30.2515 33.167 29.0683C35.3269 30.1647 38.241 30.1018 40.8663 28.8444C41.0938 28.7352 41.3167 28.6101 41.5346 28.4739C44.0029 29.6117 46.4081 29.3268 48.5205 27.6361C51.6022 25.1702 51.9798 21.7284 49.5535 18.1943C48.7256 16.9878 45.5328 13.3965 42.8428 10.4021L42.34 9.84094C41.9864 9.44232 41.5786 8.40764 41.7732 7.75325C41.8268 7.57193 41.934 7.37209 42.321 7.26726C43.1079 7.053 44.1006 8.22336 44.6335 8.85221C44.7368 8.9745 44.8251 9.07933 44.9096 9.17209C45.4334 9.75013 46.2695 10.0403 47.0908 9.93149C47.8959 9.82472 48.5645 9.35769 48.925 8.65099C49.6888 7.15456 48.9022 5.9444 48.5305 5.42313C48.8742 5.47119 49.3311 5.52641 49.7709 5.32383C50.1265 5.16077 50.3215 5.01995 50.4639 4.87277C51.0199 4.61478 51.2559 4.33496 51.4642 4.04718C51.5608 3.9171 51.5918 3.87284 51.752 3.78437C52.1916 3.54129 52.3935 3.21942 52.4874 2.96723L53.1442 2.68449L53.8531 2.69771C54.3129 2.7069 54.7048 2.36642 54.7584 1.91005C54.7981 1.56497 54.6334 1.23801 54.3546 1.05723ZM30.0219 26.0179C29.7391 26.7956 27.9951 27.5565 26.7588 28.0199C27.0873 27.3974 27.5238 26.8122 28.0287 26.3415C28.9844 25.4503 29.7855 25.4741 29.9535 25.564C30.0771 25.7823 30.0605 25.912 30.0219 26.0179ZM31.3367 21.212C31.087 21.2322 30.9767 21.1643 30.8962 21.0854C30.3061 20.5037 30.3418 18.6022 30.4355 17.2847C30.8646 17.8422 31.2153 18.4835 31.4332 19.1393C31.8442 20.3776 31.4892 21.0968 31.3367 21.212ZM35.8797 25.6642C34.6316 25.278 34.254 24.5704 34.2504 24.3806C34.3782 24.164 34.4988 24.1138 34.6091 24.0942C35.4253 23.954 36.951 25.0893 37.9665 25.9333C37.2649 25.9573 36.539 25.8685 35.8797 25.6642Z" fill="#66B933"/>
<path d="M53.8689 1.80686L53.0666 1.6285L53.4774 0.894302L52.8689 1.56165L51.5442 2.13103C51.4266 2.0048 51.2281 1.91845 50.9218 1.99428C50.1122 2.1962 50.0885 1.76455 49.1893 2.09212C49.005 2.16003 49.067 2.00347 48.4856 2.19527C48.0813 2.32782 47.8085 3.00494 47.5382 3.06295C44.9293 3.62141 45.9629 5.847 46.3233 6.28754C46.7706 6.83578 46.3989 7.02355 46.2005 6.8265C45.8911 6.51683 45.5081 6.00935 44.7728 5.28519C42.2536 2.79988 37.5606 5.3267 38.6218 9.21926C39.6217 12.8853 43.5976 16.4923 45.26 18.186C46.7639 19.7185 49.3775 23.9076 45.9697 25.4519C44.8112 25.9776 43.8172 26.0177 42.9708 25.8039C44.1597 23.8649 44.091 21.4132 42.6864 19.9529C40.7526 17.944 39.3323 19.0557 39.3323 19.0557C41.5824 19.054 44.4086 21.9024 42.0798 24.9541C41.9866 25.0762 41.8867 25.193 41.7806 25.3041C40.7833 24.7134 40.0664 23.8448 39.5799 23.3651C39.364 23.1512 37.3935 20.6397 34.9442 20.6934C35.1588 18.0869 33.2735 15.4371 30.6884 14.0161C30.3501 13.8311 29.9949 13.6787 29.6276 13.5609C29.3744 11.6122 28.4165 9.41203 25.4367 8.57274C20.8976 7.29427 18.9646 10.6784 18.2411 12.675C17.6213 14.3843 15.9605 22.053 15.681 23.2951C15.4156 24.4794 13.755 26.6025 12.164 25.3055C10.9368 24.3063 11.7095 22.0707 11.8955 21.2101C12.0954 20.2845 11.274 19.1513 10.1409 19.322C8.78301 19.5263 8.52865 20.7739 8.37298 21.1757C8.04443 22.0224 7.27791 21.6039 7.12369 21.5029C6.89113 21.3526 6.73736 20.6742 6.36712 20.4629C5.83559 20.1596 5.86618 20.3251 5.69866 20.223C4.88329 19.7212 4.77262 20.1388 4.02011 19.7809C3.78548 19.6689 3.59978 19.6799 3.46303 19.7429C3.41727 19.7724 3.3865 19.8031 3.34334 19.8426L2.15689 19.0899L1.66254 18.3355L1.96761 19.0984L1.13062 19.1736L2.02434 19.2994L3.19589 20.0423C3.13607 20.2181 3.15889 20.4588 3.43053 20.6904C4.06472 21.2319 3.72848 21.5021 4.51897 22.0429C4.68128 22.1531 4.51755 22.1935 5.01199 22.5542C5.35491 22.8054 6.06435 22.6331 6.26967 22.82C8.24215 24.6153 9.45049 22.4799 9.59861 21.9296C9.78328 21.2471 10.1534 21.4398 10.1086 21.7153C10.0358 22.1475 9.84695 22.7539 9.68615 23.7734C9.13163 27.2699 13.9194 29.6143 16.4665 26.4847C18.8638 23.5375 19.4826 18.2043 19.8915 15.8671C20.2635 13.7521 22.1468 9.18739 25.3855 11.059C26.4875 11.695 27.0981 12.4798 27.4178 13.2918C25.1482 13.4539 23.1953 14.9384 22.8265 16.9317C22.3194 19.6717 24.0501 20.1795 24.0501 20.1795C22.7373 18.3511 23.4094 14.3955 27.246 14.5114C27.3995 14.5164 27.5526 14.5295 27.7047 14.5508C27.8048 15.7052 27.5166 16.7942 27.4101 17.468C27.363 17.7578 26.532 20.6138 27.7855 22.5738C25.4357 23.5398 23.8931 26.2873 23.6844 29.1511C23.6554 29.5477 23.6668 29.9322 23.711 30.3041C22.0449 31.3475 20.4451 33.1351 20.9237 36.1929C21.6522 40.8518 25.5333 41.1993 27.6506 41.0254C29.4613 40.8769 37.1259 39.1916 38.3704 38.929C39.5583 38.6775 42.1798 39.3028 41.6646 41.2888C41.2663 42.8205 38.9122 43.0497 38.0536 43.2383C37.1268 43.4421 36.4404 44.6617 37.0678 45.6203C37.8198 46.7694 39.0594 46.4809 39.4885 46.4558C40.3967 46.4025 40.3342 47.2734 40.3068 47.4558C40.2668 47.7302 39.7146 48.1525 39.6767 48.5754C39.6222 49.1847 39.7601 49.0884 39.7368 49.283C39.6196 50.2339 40.0454 50.1588 40.033 50.9934C40.0295 51.2459 40.1127 51.4074 40.222 51.5055L40.2259 51.5012L40.2582 51.5356L40.2902 51.5602V51.5615C40.3225 51.5827 40.3575 51.5992 40.3944 51.6107L40.1643 53.2044L39.6787 53.966L40.2508 53.3738L40.6629 54.1073L40.4114 53.2399L40.6439 51.6304C40.8201 51.6022 41.0131 51.4764 41.1057 51.1506C41.3339 50.3483 41.7196 50.5418 41.8811 49.5981C41.9147 49.4048 42.0181 49.5368 42.1413 48.9372C42.2279 48.5207 41.7754 47.9472 41.8588 47.6835C42.6689 45.1411 40.224 44.9333 39.6633 45.0267C38.9657 45.1433 38.9859 44.7269 39.2563 44.6538C39.6793 44.5383 40.3088 44.4576 41.3024 44.18C44.7117 43.2255 44.8486 37.898 40.9432 36.8865C37.2637 35.9346 32.1583 37.5948 29.864 38.1961C27.7866 38.74 22.8525 38.9295 23.2046 35.2048C23.3237 33.9381 23.7819 33.0557 24.3873 32.4276C25.4806 34.4217 27.6436 35.5788 29.6087 35.0836C32.313 34.4042 32.0526 32.6192 32.0526 32.6192C30.9368 34.5727 27.0624 35.6117 25.5684 32.0754C25.5094 31.9336 25.4576 31.7891 25.4132 31.6422C26.4217 31.0694 27.5308 30.8786 28.1889 30.6946C28.488 30.6116 31.7763 30.1294 32.8797 27.8552C34.8905 29.304 37.9508 29.2529 40.4778 28.0404C40.8366 27.8695 41.1648 27.6675 41.4659 27.4451C43.1982 28.3729 45.5452 28.8741 47.9617 26.9411C51.644 23.9945 50.0179 20.4535 48.8161 18.7021C47.787 17.2038 42.5198 11.3881 41.6716 10.4383C40.8661 9.53141 40.1049 6.94685 42.0855 6.40789C43.6121 5.99237 44.9808 7.92236 45.5717 8.57503C46.2083 9.27678 47.6066 9.26834 48.1285 8.24742C48.7529 7.02404 47.886 6.09088 47.651 5.73094C47.1539 4.96977 47.9403 4.59202 48.1121 4.52388C48.3697 4.4229 49.0109 4.69295 49.3972 4.5146C49.9539 4.2594 49.8019 4.18747 49.982 4.11111C50.8654 3.74016 50.5893 3.40777 51.3185 3.00428C51.5196 2.89304 51.6207 2.75854 51.6613 2.62719L51.654 2.60163C51.6862 2.48836 51.6825 2.41059 51.6662 2.34909L52.9674 1.79032L53.8689 1.80686ZM29.6351 16.186C29.66 15.9428 29.6824 15.6585 29.6962 15.3444C30.9489 16.1994 31.8568 17.5811 32.2817 18.8559C32.8962 20.7086 32.2149 22.0122 31.4757 22.0965C29.0178 22.3779 29.4461 18.0813 29.6351 16.186ZM26.094 29.2048C25.8627 29.2844 25.5945 29.3813 25.3021 29.5003C25.5587 28.0055 26.4368 26.6041 27.4194 25.6871C28.8465 24.3562 30.3155 24.4327 30.7004 25.0699C31.9793 27.1862 27.8947 28.5863 26.094 29.2048ZM35.6148 26.5179C33.7502 25.9408 33.088 24.6264 33.4489 23.9766C34.6509 21.8142 37.8955 24.6638 39.3268 25.9211C39.5101 26.0827 39.7273 26.2675 39.9762 26.4611C38.5512 26.9815 36.8979 26.9162 35.6148 26.5179Z" fill="black"/>
<path d="M42.4081 54.1455H42.5774V53.6524H42.77V53.5335H42.2214V53.6524H42.4081V54.1455ZM42.8199 54.1252V53.5448H43.0756L43.1691 53.938H43.1709L43.2633 53.5448H43.5129V54.1252H43.3724V53.6395L43.3698 53.6378L43.2355 54.1252H43.0899L42.9623 53.6335L42.9604 53.6361V54.1252H42.8199Z" fill="#66B933"/>
</g>
<defs>
<clipPath id="clip0_39118_15">
<rect width="55" height="55" fill="white"/>
</clipPath>
</defs>
</svg>
